<?xml version="1.0" encoding="utf-8"?>
<!-- Generator: Adobe Illustrator 25.3.1, SVG Export Plug-In . SVG Version: 6.00 Build 0)  -->
<svg version="1.1" xmlns="http://www.w3.org/2000/svg" xmlns:xlink="http://www.w3.org/1999/xlink" x="0px" y="0px"
	 viewBox="0 0 2048 2048" style="enable-background:new 0 0 2048 2048;" xml:space="preserve">
<style type="text/css">
	.st0{fill:#CC3313;}
</style>
<g id="Layer_10">
</g>
<g id="Layer_7">
</g>
<g id="Layer_6">
</g>
<g id="Layer_5">
</g>
<g id="Layer_4">
</g>
<g id="Layer_3">
	<g>
		<path d="M1398.93,975.43c-11.78,26.72-23.09,52.37-34.96,79.29c-93.28-35.8-171.88-90.85-238.8-169.32V740.5h8.85
			C1190.42,852.08,1283.56,930.76,1398.93,975.43z"/>
		<rect x="1039.37" y="598.62" width="85.8" height="427.94"/>
		<rect x="1125.17" y="653.5" width="156.13" height="87"/>
		<path class="st0" d="M985.41,859.61c-0.36,93.23-75.63,167.98-168.78,167.65c-93.03-0.34-167.47-75.61-167.24-169.11
			c0.24-92.17,76.01-167.52,168.15-167.22C910.68,691.24,985.78,766.71,985.41,859.61z"/>
		<path d="M967.94,1071.59c1.24,160.24-92.56,307.57-235.63,378.47c-12.37-25.08-24.22-49.1-36.59-74.19
			c70.26-36.58,122.59-88.78,157.43-161.22c-0.01,0-0.03,0-0.04,0.01c21.08-46.82,33.79-92.99,33.79-143.07
			C913.75,1071.54,939.37,1071.56,967.94,1071.59z"/>
		<path d="M933.33,1165.58c-82.26,106.41-263.77,35.65-257.63-93.99h80.05c23.01,89.87,115.29,78.79,131.15,0h80.79
			C969.96,1103.57,956.88,1138.74,933.33,1165.58z"/>
		<path d="M1182.59,1149.21v-77.57c-91.64,0.18-166.84,75.28-167.07,167.06c-0.24,93.41,74.13,168.6,167.07,168.94v-77.27
			c-49.17-0.25-89.76-41.27-89.66-90.68C1093.02,1190.02,1133.56,1149.13,1182.59,1149.21z"/>
		<path d="M1351.21,1240.16c-0.36,92.92-75.21,167.48-167.99,167.48h-0.63v-77.27h0.15c50.15,0.17,90.85-40.35,91.06-90.65
			c0.2-50.04-40.32-90.32-91.03-90.51h-0.18v-77.57h0.91C1276.55,1071.95,1351.58,1147.34,1351.21,1240.16z"/>
		<path class="st0" d="M1494.66,553.84v941h-941v-941H1494.66 M1558.66,489.84h-64h-941h-64v64v941v64h64h941h64v-64v-941V489.84
			L1558.66,489.84z"/>
	</g>
</g>
</svg>
